<?xml version="1.0" encoding="UTF-8" standalone="no"?>
<!-- Created with Inkscape (http://www.inkscape.org/) -->

<svg
   version="1.1"
   id="svg1"
   width="745.49335"
   height="298.26666"
   viewBox="0 0 745.49335 298.26666"
   sodipodi:docname="Smile Dental logo.eps"
   xmlns:inkscape="http://www.inkscape.org/namespaces/inkscape"
   xmlns:sodipodi="http://sodipodi.sourceforge.net/DTD/sodipodi-0.dtd"
   xmlns="http://www.w3.org/2000/svg"
   xmlns:svg="http://www.w3.org/2000/svg">
  <defs
     id="defs1" />
  <sodipodi:namedview
     id="namedview1"
     pagecolor="#ffffff"
     bordercolor="#000000"
     borderopacity="0.25"
     inkscape:showpageshadow="2"
     inkscape:pageopacity="0.0"
     inkscape:pagecheckerboard="0"
     inkscape:deskcolor="#d1d1d1">
    <inkscape:page
       x="0"
       y="0"
       inkscape:label="1"
       id="page1"
       width="745.49335"
       height="298.26666"
       margin="0"
       bleed="0" />
  </sodipodi:namedview>
  <g
     id="g1"
     inkscape:groupmode="layer"
     inkscape:label="1">
    <g
       id="group-R5">
      <path
         id="path2"
         d="m 189.988,1727.54 h 59.774 v 202.8 l 189.988,295.3 h -66.883 l -56.215,-90.37 c -41.75,-66.41 -73.054,-117.65 -93.925,-153.7 h -4.274 c -16.125,27.99 -40.32,68.08 -72.578,120.26 -1.898,2.85 -9.254,14.46 -22.059,34.86 l -56.2144,88.95 H 0 l 189.988,-296.01 v -202.09"
         style="fill:#6d6c6a;fill-opacity:1;fill-rule:nonzero;stroke:none"
         transform="matrix(0.13333333,0,0,-0.13333333,0,298.26667)" />
      <path
         id="path3"
         d="m 705.852,1984.41 v 4.28 c 38.894,5.21 66.41,18.5 82.543,39.84 16.125,21.36 24.191,45.78 24.191,73.3 0,42.69 -14.707,75.9 -44.117,99.62 -29.414,23.71 -67.84,35.58 -115.274,35.58 -50.285,0 -90.132,-13.88 -119.547,-41.63 -29.414,-27.75 -44.355,-68.19 -44.828,-121.33 h 59.063 c 1.894,73.06 37,109.59 105.312,109.59 30.36,0 54.668,-7.24 72.934,-21.71 18.266,-14.46 27.394,-34.98 27.394,-61.54 0,-28 -9.367,-50.28 -28.105,-66.89 -18.734,-16.6 -43.996,-24.91 -75.785,-24.91 h -33.442 v -49.1 h 37.004 c 34.629,0 62.145,-7.59 82.543,-22.76 20.399,-15.19 30.598,-38.43 30.598,-69.74 0,-29.89 -9.965,-53.61 -29.887,-71.16 -19.926,-17.55 -46.492,-26.33 -79.699,-26.33 -35.574,0 -63.566,9.02 -83.965,27.04 -20.398,18.03 -31.07,45.07 -32.019,81.12 h -58.352 c -0.473,-50.29 14.711,-89.77 45.543,-118.47 30.836,-28.71 73.766,-43.06 128.793,-43.06 32.73,0 62.145,6.05 88.238,18.15 26.09,12.1 46.489,29.06 61.196,50.88 14.703,21.82 22.058,46.73 22.058,74.71 0,33.22 -9.137,60.6 -27.394,82.18 -18.266,21.6 -49.934,35.71 -94.996,42.34"
         style="fill:#6d6c6a;fill-opacity:1;fill-rule:nonzero;stroke:none"
         transform="matrix(0.13333333,0,0,-0.13333333,0,298.26667)" />
      <path
         id="path4"
         d="m 975.945,1067 c -47.121,37.21 -110.707,64.54 -190.757,82 l -278.165,60.65 c -62.832,13.77 -109.957,33.3 -141.367,58.56 -31.41,25.27 -47.121,55.35 -47.121,90.27 0,47.77 25.59,85.66 76.758,113.69 51.18,28.02 120.344,42.03 207.492,42.03 93.227,0 166.692,-19.98 220.399,-59.95 53.707,-39.96 80.562,-94.4 80.562,-163.3 h 132.244 c 0,67.07 -17.48,125.42 -52.435,175.01 -34.969,49.62 -84.621,87.97 -148.973,115.08 -64.344,27.1 -140.09,40.66 -227.238,40.66 -85.121,0 -159.352,-10.58 -222.684,-31.71 -63.344,-21.13 -112.226,-51.22 -146.687,-90.26 -34.45,-39.04 -51.68,-84.75 -51.68,-137.12 0,-67.98 23.816,-124.49 71.437,-169.51 47.633,-45.01 119.071,-77.64 214.333,-97.84 l 294.882,-62.01 c 47.625,-10.11 84.114,-26.89 109.446,-50.309 25.328,-23.421 38,-52.14 38,-86.14 0,-53.281 -27.364,-95.77 -82.082,-127.473 -54.727,-31.687 -128.196,-47.539 -220.411,-47.539 -99.308,0 -178.851,19.75 -238.636,59.25 -59.793,39.512 -89.688,92.801 -89.688,159.871 l -132.238,1.371 c 0,-65.222 18.992,-122.64 57,-172.261 37.996,-49.622 91.707,-87.969 161.125,-115.071 69.406,-27.097 150.223,-40.66 242.437,-40.66 87.149,0 163.665,11.711 229.524,35.152 65.871,23.43 116.543,56.5 152.012,99.219 35.466,42.719 53.196,92.11 53.196,148.141 0,76.258 -23.56,132.999 -70.685,170.199"
         style="fill:#6d6c6a;fill-opacity:1;fill-rule:nonzero;stroke:none"
         transform="matrix(0.13333333,0,0,-0.13333333,0,298.26667)" />
      <path
         id="path5"
         d="m 2460.1,636.352 h 127.68 V 1601.03 H 2460.1 V 636.352"
         style="fill:#6d6c6a;fill-opacity:1;fill-rule:nonzero;stroke:none"
         transform="matrix(0.13333333,0,0,-0.13333333,0,298.26667)" />
      <path
         id="path6"
         d="M 3004.24,1601.03 H 2876.55 V 636.352 h 685.53 V 741.09 h -557.84 v 859.94"
         style="fill:#6d6c6a;fill-opacity:1;fill-rule:nonzero;stroke:none"
         transform="matrix(0.13333333,0,0,-0.13333333,0,298.26667)" />
      <path
         id="path7"
         d="m 3782.42,636.352 h 738.74 V 741.09 h -611.05 v 341.76 h 556.32 v 104.75 h -556.32 v 308.68 h 618.65 v 104.75 H 3782.42 V 636.352"
         style="fill:#6d6c6a;fill-opacity:1;fill-rule:nonzero;stroke:none"
         transform="matrix(0.13333333,0,0,-0.13333333,0,298.26667)" />
      <path
         id="path8"
         d="m 5376.89,769.328 c -54.73,-31.687 -128.19,-47.539 -220.41,-47.539 -99.31,0 -178.85,19.75 -238.65,59.25 -59.78,39.512 -89.67,92.801 -89.67,159.871 l -132.24,1.371 c 0,-65.222 19,-122.64 57,-172.261 38,-49.622 91.7,-87.969 161.12,-115.071 69.41,-27.097 150.23,-40.66 242.44,-40.66 87.15,0 163.66,11.711 229.53,35.152 65.87,23.43 116.54,56.5 152,99.219 35.47,42.719 53.2,92.11 53.2,148.141 0,76.258 -23.56,132.999 -70.68,170.199 -47.12,37.21 -110.71,64.54 -190.76,82 l -278.17,60.65 c -62.83,13.77 -109.95,33.3 -141.36,58.56 -31.41,25.27 -47.12,55.35 -47.12,90.27 0,47.77 25.59,85.66 76.76,113.69 51.18,28.02 120.34,42.03 207.49,42.03 93.22,0 166.69,-19.98 220.4,-59.95 53.7,-39.96 80.56,-94.4 80.56,-163.3 h 132.24 c 0,67.07 -17.48,125.42 -52.43,175.01 -34.96,49.62 -84.62,87.97 -148.98,115.08 -64.34,27.1 -140.09,40.66 -227.23,40.66 -85.12,0 -159.35,-10.58 -222.69,-31.71 -63.34,-21.13 -112.23,-51.22 -146.68,-90.26 -34.45,-39.04 -51.68,-84.75 -51.68,-137.12 0,-67.98 23.81,-124.49 71.43,-169.51 47.64,-45.01 119.07,-77.64 214.34,-97.84 l 294.88,-62.01 c 47.62,-10.11 84.11,-26.89 109.44,-50.309 25.33,-23.421 38,-52.14 38,-86.14 0,-53.281 -27.36,-95.77 -82.08,-127.473"
         style="fill:#6d6c6a;fill-opacity:1;fill-rule:nonzero;stroke:none"
         transform="matrix(0.13333333,0,0,-0.13333333,0,298.26667)" />
      <path
         id="path9"
         d="M 1296.64,70.9883 C 1277.6,48.5508 1249.9,37.3516 1213.55,37.3516 h -62.64 V 306.582 h 62.64 c 36.35,0 64.05,-11.223 83.09,-33.641 19.03,-22.441 28.54,-56.101 28.54,-100.98 0,-44.871 -9.51,-78.5313 -28.54,-100.9727 z M 1213.55,343.93 h -98.43 V 0 h 98.43 c 46.31,0 82.59,14.582 108.86,43.7305 26.28,29.1484 39.42,71.8905 39.42,128.2305 0,55.348 -13.07,97.859 -39.2,127.5 -26.13,29.641 -62.5,44.469 -109.08,44.469"
         style="fill:#b18f79;fill-opacity:1;fill-rule:nonzero;stroke:none"
         transform="matrix(0.13333333,0,0,-0.13333333,0,298.26667)" />
      <path
         id="path10"
         d="m 1813.33,0 h 207.09 v 37.3516 h -171.3 V 159.191 h 155.95 v 37.34 h -155.95 v 110.051 h 173.42 V 343.93 H 1813.33 V 0"
         style="fill:#b18f79;fill-opacity:1;fill-rule:nonzero;stroke:none"
         transform="matrix(0.13333333,0,0,-0.13333333,0,298.26667)" />
      <path
         id="path11"
         d="m 2677.74,169.012 c 0,-40.293 0.72,-76.9729 2.13,-110.0432 l -1.7,-0.4883 c -5.97,10.4687 -18.46,32.25 -37.5,65.3395 L 2623.2,154.281 2512.84,343.93 H 2469.8 V 0 h 35.8 v 142.98 c 0,60.911 -0.72,108.09 -2.13,141.489 l 1.7,0.5 c 9.09,-17.028 27.7,-49.629 55.82,-97.77 l 14.07,-24.07 L 2670.07,0 h 43.47 v 343.93 h -35.8 V 169.012"
         style="fill:#b18f79;fill-opacity:1;fill-rule:nonzero;stroke:none"
         transform="matrix(0.13333333,0,0,-0.13333333,0,298.26667)" />
      <path
         id="path12"
         d="m 3154.38,306.582 h 102.69 V 0 h 35.8 v 306.582 h 102.68 v 37.348 h -241.17 v -37.348"
         style="fill:#b18f79;fill-opacity:1;fill-rule:nonzero;stroke:none"
         transform="matrix(0.13333333,0,0,-0.13333333,0,298.26667)" />
      <path
         id="path13"
         d="m 3959.58,136.59 h -116.76 l 28.55,81.558 c 12.5,35.372 21.88,63.543 28.12,84.512 h 2.57 c 8.23,-26.539 17.9,-55.199 28.97,-85.98 z M 3879.47,343.93 3757.61,0 h 37.49 l 34.52,99.2383 h 143.59 L 4008.58,0 h 37.49 l -124.41,343.93 h -42.19"
         style="fill:#b18f79;fill-opacity:1;fill-rule:nonzero;stroke:none"
         transform="matrix(0.13333333,0,0,-0.13333333,0,298.26667)" />
      <path
         id="path14"
         d="m 4516.33,343.93 h -35.79 V 0 h 192.17 V 37.3516 H 4516.33 V 343.93"
         style="fill:#b18f79;fill-opacity:1;fill-rule:nonzero;stroke:none"
         transform="matrix(0.13333333,0,0,-0.13333333,0,298.26667)" />
      <path
         id="path15"
         d="M 151.336,140.691 H 855.34 v 62.547 H 151.336 v -62.547"
         style="fill:#6d6c6a;fill-opacity:1;fill-rule:nonzero;stroke:none"
         transform="matrix(0.13333333,0,0,-0.13333333,0,298.26667)" />
      <path
         id="path16"
         d="m 4887.21,140.691 h 704 v 62.547 h -704 v -62.547"
         style="fill:#6d6c6a;fill-opacity:1;fill-rule:nonzero;stroke:none"
         transform="matrix(0.13333333,0,0,-0.13333333,0,298.26667)" />
      <path
         id="path17"
         d="m 1664.88,1524.8 c 164.03,16.61 306.25,206.41 462.84,190.54 189.78,-19.23 200.58,-323.89 181.87,-464.93 -22.17,-167.22 -166.01,-636.738 -341.54,-693.191 -192.56,-61.93 -102.22,211.66 -75.63,298.922 31.81,104.359 111.64,279.239 113.25,382.779 0.55,35.63 -5.36,64.38 -45.38,61.25 -103.67,-8.12 -126.54,-248.27 -260.18,-213.9 -86.75,22.32 -117.03,218.93 -219.93,204.14 -54.91,-7.9 -44.12,-150.2 -41.53,-193.34 4.74,-78.68 37.37,-177.8 37.89,-251.011 0.22,-31.071 -17.9,-11.528 -27.91,5.023 -57.63,95.258 -100.65,372.498 -65.85,476.578 13.11,39.2 50.08,68.41 91.53,71.95 114.92,9.79 174.94,-146.5 250.39,-207.33 12.27,-0.08 58.43,63.55 70.81,76.63 34.46,36.44 110.73,118.04 158.34,124.86 196.33,28.13 116.7,-255.26 86.77,-359.07 -36.08,-125.188 -91.05,-243.38 -111.16,-373.552 -1.21,-7.816 -4.53,-22 7.55,-18.457 80.36,23.598 165.41,203.071 196.05,277.778 69.09,168.491 133.65,421.141 69.3,597.211 -77.79,212.82 -270.15,22.2 -397.16,-24.29 -109.23,-39.98 -192.94,-36.03 -295.53,20.61 -1.47,2.13 7.2,10.8 8.17,10.8 45.8,0 103.02,-4.46 147.04,0"
         style="fill:#6d6c6a;fill-opacity:1;fill-rule:nonzero;stroke:none"
         transform="matrix(0.13333333,0,0,-0.13333333,0,298.26667)" />
      <path
         id="path18"
         d="m 1662.13,1611.96 c -31.69,6.46 -64.97,19.61 -96.55,25.92 -298.66,59.71 -364.32,-103.96 -339.04,-371.71 26.38,-279.51 136.94,-519.83 304.88,-740.729 6.31,-19.32 -63.34,31.829 -67.87,35.59 -222.15,184.399 -387.99,711.729 -306.3,986.709 67.34,226.64 336.63,193.55 492.24,81.48 6.77,-4.88 15.13,-5.72 12.64,-17.26"
         style="fill:#b18f79;fill-opacity:1;fill-rule:nonzero;stroke:none"
         transform="matrix(0.13333333,0,0,-0.13333333,0,298.26667)" />
    </g>
  </g>
</svg>
