<svg xmlns="http://www.w3.org/2000/svg" width="333.33" height="91.33" viewBox="0 0 333.33 91.33">
  <g id="medicare-green-gold" transform="translate(-537.899 -2644.52)">
    <rect id="Rectangle_1107" data-name="Rectangle 1107" width="333.33" height="91.33" transform="translate(537.899 2644.52)" fill="#008542"/>
    <path id="Path_11065" data-name="Path 11065" d="M-128.1,0l6.357-30.674h8.057l-.908,4.336h.117a11.237,11.237,0,0,1,4.98-4.1,14.811,14.811,0,0,1,5.6-1A8.635,8.635,0,0,1-99.038-30.1a5.831,5.831,0,0,1,2.52,4,10.7,10.7,0,0,1,4.38-3.867,12.625,12.625,0,0,1,5.757-1.465,12.424,12.424,0,0,1,4.629.85,7.69,7.69,0,0,1,3.428,2.593,6.921,6.921,0,0,1,1.289,4.233,17.687,17.687,0,0,1-.586,3.955L-80.2-7.354-81.724,0h-8.32l4.014-20.83q0-4.014-3.428-4.014A5.813,5.813,0,0,0-93.135-23.6a9.64,9.64,0,0,0-2.622,3.223,16.827,16.827,0,0,0-1.494,4.058L-100.737,0h-8.32l3.9-19.395q.088-.908.088-1.611a4.472,4.472,0,0,0-.791-2.754,3.129,3.129,0,0,0-2.666-1.084,6.085,6.085,0,0,0-3.75,1.23,9.524,9.524,0,0,0-2.607,3.193,15.738,15.738,0,0,0-1.436,4.1L-119.751,0Zm84.2-13.359a41.768,41.768,0,0,0,.352-4.775A14.1,14.1,0,0,0-45.308-25.4a11.067,11.067,0,0,0-4.951-4.526,17.394,17.394,0,0,0-7.5-1.509,15.451,15.451,0,0,0-6.87,1.509,15.638,15.638,0,0,0-5.273,4.16,19.124,19.124,0,0,0-3.34,6.05A21.754,21.754,0,0,0-74.4-12.656q0,6.5,3.647,10t9.858,3.5q6.3,0,9.946-2.622A17.836,17.836,0,0,0-45.1-9.727h-8.408a14.322,14.322,0,0,1-2.637,3.135,5.315,5.315,0,0,1-3.545,1.113q-3.691,0-5.186-2.051a10.01,10.01,0,0,1-1.465-5.83Zm-21.562-5.3Q-63.12-25.2-57.173-25.2q5.654,0,5.654,6.533ZM-21.4,0l.645-3.926Q-23.423.82-29.927.82A12.359,12.359,0,0,1-36.079-.645a9.806,9.806,0,0,1-3.97-4.219,14.045,14.045,0,0,1-1.362-6.357,27.37,27.37,0,0,1,1.025-7.471,21.26,21.26,0,0,1,3.105-6.533,15.2,15.2,0,0,1,5.2-4.541,15.009,15.009,0,0,1,7.192-1.67,11.171,11.171,0,0,1,5.273,1.23A7.07,7.07,0,0,1-17.681-28.8a6.741,6.741,0,0,1,1.069,1.479l.366.718,3.4-15.879h8.408L-13.433-.029Zm-2.52-25.2a7.033,7.033,0,0,0-5.054,1.978,11.967,11.967,0,0,0-3.062,5A18.149,18.149,0,0,0-33.062-12.3a7.61,7.61,0,0,0,1.553,4.849,5.2,5.2,0,0,0,4.336,1.978,6.868,6.868,0,0,0,5-2.065,12.89,12.89,0,0,0,3.135-5.127A18.4,18.4,0,0,0-18-18.6a7.194,7.194,0,0,0-1.509-4.819A5.469,5.469,0,0,0-23.921-25.2ZM-7.573,0l6.5-30.674h8.32L.776,0ZM9.712-42.48l-1.494,7.09H-.19L1.45-42.48ZM38.54-20.1H30.249a4.868,4.868,0,0,0-1.494-3.9,6.481,6.481,0,0,0-4.248-1.2,6.261,6.261,0,0,0-4.8,2.021,11.957,11.957,0,0,0-2.71,5.024,22.593,22.593,0,0,0-.835,6.079,7.728,7.728,0,0,0,1.377,4.746,5.021,5.021,0,0,0,4.307,1.846A5.855,5.855,0,0,0,26.1-7.09a9.969,9.969,0,0,0,2.476-4.072H36.9a20.624,20.624,0,0,1-3.428,6.475A13.99,13.99,0,0,1,28.228-.615,16.033,16.033,0,0,1,21.313.82,17.22,17.22,0,0,1,13.989-.6,9.919,9.919,0,0,1,9.346-4.966a15.253,15.253,0,0,1-1.6-7.339A22.523,22.523,0,0,1,9.8-22a16.255,16.255,0,0,1,5.918-6.914,16.369,16.369,0,0,1,9.141-2.52,16.009,16.009,0,0,1,9.785,2.783Q38.394-25.869,38.54-20.1Zm20.684,8.379.85-3.047A9.556,9.556,0,0,1,56.7-13.74q-2.2.293-4.7.7a8.419,8.419,0,0,0-3.853,1.465A3.909,3.909,0,0,0,46.8-8.291a3.01,3.01,0,0,0,1.333,2.607,5.384,5.384,0,0,0,3.179.938,6.746,6.746,0,0,0,5.273-1.948A12.491,12.491,0,0,0,59.224-11.719ZM50.171-21.3H42.466A10.814,10.814,0,0,1,45-27.275a11.2,11.2,0,0,1,5.1-3.208,22.555,22.555,0,0,1,6.724-.952q6.006,0,9.17,1.787a6.632,6.632,0,0,1,3.486,6.182,31.558,31.558,0,0,1-.7,5.1L66.021-5.947a15.338,15.338,0,0,0-.439,3.486A9.242,9.242,0,0,0,65.874,0h-8.2V-3.018a10.09,10.09,0,0,1-4.16,2.754A14.844,14.844,0,0,1,48,.791a11.019,11.019,0,0,1-6.738-2.036,6.951,6.951,0,0,1-2.754-5.962A9.3,9.3,0,0,1,39.9-12.319a10.242,10.242,0,0,1,3.984-3.545,19.238,19.238,0,0,1,6.167-1.89q3.721-.381,4.644-.483t2.314-.278a15.7,15.7,0,0,0,1.685-.264,3,3,0,0,1,.322-.088,4.231,4.231,0,0,0,2.051-1.055,2.942,2.942,0,0,0,.674-2.109,3.106,3.106,0,0,0-1.641-3,7.925,7.925,0,0,0-3.75-.864,7.111,7.111,0,0,0-4.1,1.157A4.934,4.934,0,0,0,50.171-21.3ZM71.03,0l6.357-30.674h8l-1.2,5.6a10.347,10.347,0,0,1,4.5-4.731,13.532,13.532,0,0,1,6.548-1.626,12.472,12.472,0,0,1,2.021.117l-1.729,8.086a17.192,17.192,0,0,0-3.545-.41A8.541,8.541,0,0,0,85.8-21.328q-2.578,2.52-3.545,7.705L79.38,0Zm53.848-13.359a41.768,41.768,0,0,0,.352-4.775,14.1,14.1,0,0,0-1.758-7.266,11.067,11.067,0,0,0-4.951-4.526,17.394,17.394,0,0,0-7.5-1.509,15.451,15.451,0,0,0-6.87,1.509,15.638,15.638,0,0,0-5.273,4.16,19.124,19.124,0,0,0-3.34,6.05,21.754,21.754,0,0,0-1.157,7.061q0,6.5,3.647,10t9.858,3.5q6.3,0,9.946-2.622a17.836,17.836,0,0,0,5.845-7.954h-8.408a14.322,14.322,0,0,1-2.637,3.135,5.315,5.315,0,0,1-3.545,1.113q-3.691,0-5.186-2.051a10.01,10.01,0,0,1-1.465-5.83Zm-21.562-5.3q2.344-6.533,8.291-6.533,5.654,0,5.654,6.533Z" transform="translate(706 2711)" fill="#fdc82f"/>
  </g>
</svg>
