<svg width="163" height="23" viewBox="0 0 163 23" fill="none" xmlns="http://www.w3.org/2000/svg">
<path d="M11.4075 22.4687C17.7059 22.4687 22.815 17.5487 22.815 11.4837C22.815 5.41859 17.7059 0.498661 11.4075 0.498661C5.10915 0.498661 0 5.41859 0 11.4837C0 17.5487 5.10915 22.4687 11.4075 22.4687Z" fill="#E7D100"/>
<path d="M43.5432 22.1351V12.4983H34.1011V22.1351H31.1484V1.17427H34.1011V9.94582H43.5432V1.17427H46.4959V22.1351H43.5432Z" fill="#062066"/>
<path d="M52.6875 22.1353V1.17444H55.6402V22.1353H52.6875Z" fill="#062066"/>
<path d="M70.5118 22.4066C64.5523 22.4066 60.7344 18.74 60.7344 11.9261C60.7344 5.11223 64.6496 0.904911 70.4793 0.904911C72.4694 0.904911 74.0918 1.17531 75.9845 2.04056L75.0219 4.38757C73.5185 3.72781 72.1666 3.42497 70.4144 3.42497C66.4126 3.42497 63.8817 6.78866 63.8817 11.6557C63.8817 17.096 66.6181 19.854 70.8903 19.854C72.4802 19.854 73.9836 19.4322 75.2815 18.859L76.0602 21.206C74.373 21.9523 72.4153 22.4066 70.4901 22.4066H70.5118Z" fill="#062066"/>
<path d="M94.2889 22.1353C93.7806 20.394 93.2073 18.5012 92.6341 16.695H83.9707C83.3651 18.5228 82.7702 20.394 82.2619 22.1353H79.2227C81.5372 14.7157 84.0032 7.78284 86.7071 1.17444H90.0167C92.937 8.17221 95.457 15.2565 97.685 22.1353H94.2889ZM88.2429 4.21366L88.2105 4.27855C86.9775 7.64224 85.7445 11.0384 84.6305 14.3696H91.8554C90.7414 11.0708 89.5084 7.64224 88.2429 4.22447V4.21366Z" fill="#062066"/>
<path d="M107.591 14.2398H104.822V22.1353H101.869V1.17444H107.612C108.51 1.17444 109.386 1.23934 110.197 1.41239C113.15 2.07215 114.945 4.23529 114.945 7.39348C114.945 11.6549 112.209 14.2398 107.58 14.2398H107.591ZM109.126 3.79185C108.553 3.64043 107.926 3.58635 107.353 3.58635H104.822V11.8496H107.796C110.414 11.8496 111.798 10.1407 111.798 7.64224C111.798 5.66296 110.868 4.21366 109.116 3.80266L109.126 3.79185Z" fill="#062066"/>
<path d="M123.55 22.5013C121.895 22.5013 120.392 22.2634 118.77 21.8416L119.159 19.2566C120.608 19.7109 122.133 19.9813 123.788 19.9813C126.405 19.9813 127.909 18.7159 127.909 16.5311C127.909 14.3463 126.07 13.5244 123.756 12.4752C120.9 11.1882 118.91 9.71724 118.91 6.55908C118.91 3.01155 121.711 0.826786 125.648 0.826786C127.033 0.826786 128.687 1.06473 129.769 1.45409L129.282 3.82272C128.201 3.48744 126.881 3.24949 125.551 3.24949C123.139 3.24949 122.036 4.51492 122.036 6.19134C122.036 8.35447 123.777 9.1981 125.854 10.1499C128.742 11.4694 131.089 12.7673 131.089 16.1526C131.089 20.2409 127.963 22.4905 123.539 22.4905L123.55 22.5013Z" fill="#062066"/>
<path d="M150.831 22.4687C157.13 22.4687 162.239 17.5487 162.239 11.4837C162.239 5.41859 157.13 0.498661 150.831 0.498661C144.533 0.498661 139.424 5.41859 139.424 11.4837C139.424 17.5487 144.533 22.4687 150.831 22.4687Z" fill="#E7D100"/>
<path d="M16.8991 10.8554H12.4564V6.41272H10.3567V10.8554H5.91406V12.9551H10.3567V17.3977H12.4564V12.9551H16.8991V10.8554Z" fill="#062066"/>
<path d="M156.327 10.8554H151.884V6.41272H149.784V10.8554H145.342V12.9551H149.784V17.3977H151.884V12.9551H156.327V10.8554Z" fill="#062066"/>
</svg>
